<svg data-v-423bf9ae="" xmlns="http://www.w3.org/2000/svg" viewBox="0 0 407.414081147334 60" class="font"><!----><!----><!----><g data-v-423bf9ae="" id="c6d842b9-722b-46bd-942c-9bff2b32590e" fill="black" transform="matrix(5.424954586220476,0,0,5.424954586220476,-1.735990771608698,-16.708860188505035)"><path d="M9.98 6.72L8.23 12.94L6.17 6.71L5.18 6.71L3.09 12.87L1.36 6.72L0.32 6.72L2.56 14L3.63 14L5.70 7.98L7.66 14L8.75 14L11.00 6.72ZM15.54 6.58C13.50 6.58 11.91 8.19 11.91 10.33C11.91 12.50 13.45 14.14 15.55 14.14C17.22 14.14 18.48 13.06 18.72 11.76L17.72 11.76C17.51 12.66 16.66 13.23 15.55 13.23C14.11 13.23 13.05 12.15 12.94 10.63L18.76 10.63L18.86 10.54C19.04 8.41 17.56 6.58 15.54 6.58ZM12.98 9.74C13.23 8.39 14.29 7.48 15.53 7.48C16.81 7.48 17.71 8.48 17.85 9.76ZM24.50 6.58C23.31 6.58 22.39 6.99 21.76 7.78L21.76 3.08L20.76 3.08L20.76 14L21.48 14L21.69 12.87C22.32 13.69 23.21 14.14 24.49 14.14C26.47 14.14 28.10 12.46 28.10 10.33C28.10 8.23 26.46 6.58 24.50 6.58ZM24.42 13.23C23.14 13.23 22.30 12.61 21.80 11.61L21.80 9.10C22.27 8.13 23.13 7.49 24.42 7.49C25.80 7.49 27.03 8.72 27.03 10.33C27.03 11.96 25.82 13.23 24.42 13.23ZM35.53 9.30L36.54 9.30C36.43 7.94 35.11 6.58 33.18 6.58C31.02 6.58 29.46 8.20 29.46 10.33C29.46 12.47 31.02 14.14 33.21 14.14C34.94 14.14 36.36 13.03 36.51 11.54L35.50 11.54C35.32 12.57 34.38 13.23 33.18 13.23C31.72 13.23 30.52 12.07 30.52 10.36C30.52 8.69 31.68 7.49 33.21 7.49C34.52 7.49 35.43 8.44 35.53 9.30ZM41.86 6.58C41.09 6.58 40.22 6.97 39.28 7.76L39.10 6.72L38.36 6.72L38.36 14L39.40 14L39.40 8.75C40.31 7.98 41.05 7.59 41.66 7.59C41.99 7.59 42.27 7.64 42.50 7.73L42.63 6.71C42.42 6.64 42.17 6.58 41.86 6.58ZM46.76 6.58C44.72 6.58 43.13 8.19 43.13 10.33C43.13 12.50 44.67 14.14 46.77 14.14C48.44 14.14 49.70 13.06 49.94 11.76L48.94 11.76C48.73 12.66 47.88 13.23 46.77 13.23C45.33 13.23 44.27 12.15 44.16 10.63L49.98 10.63L50.08 10.54C50.26 8.41 48.78 6.58 46.76 6.58ZM44.20 9.74C44.45 8.39 45.51 7.48 46.75 7.48C48.03 7.48 48.93 8.48 49.07 9.76ZM54.71 6.58C52.99 6.58 51.77 7.56 51.67 9.02L52.67 9.02C52.72 8.18 53.52 7.49 54.67 7.49C55.96 7.49 56.71 8.16 56.71 9.67L56.71 9.94L54.45 9.93C52.53 9.93 51.38 10.79 51.38 12.01C51.38 13.27 52.43 14.14 53.77 14.14C55.06 14.14 56.08 13.55 56.84 12.96L57.05 14L57.74 14L57.74 9.67C57.74 7.70 56.64 6.58 54.71 6.58ZM52.42 12.00C52.42 11.19 53.13 10.79 54.46 10.79L56.71 10.79L56.71 12.11C55.96 12.70 55.01 13.22 53.98 13.22C53.13 13.22 52.42 12.78 52.42 12.00ZM59.12 7.62L60.26 7.62L60.26 12.00C60.26 13.57 61.12 14.14 62.24 14.14C62.99 14.14 63.69 13.99 64.26 13.73L64.15 12.84C63.63 13.06 63.04 13.22 62.40 13.22C61.71 13.22 61.29 12.85 61.29 11.98L61.29 7.62L64.22 7.62L64.22 6.72L61.29 6.72L61.29 4.65L60.28 4.91L60.28 6.72L59.12 6.72ZM66.32 5.10C66.75 5.10 67.12 4.73 67.12 4.27C67.12 3.85 66.75 3.50 66.32 3.50C65.87 3.50 65.52 3.85 65.52 4.27C65.52 4.73 65.87 5.10 66.32 5.10ZM66.81 6.72L65.76 6.72L65.76 14L66.81 14ZM75.42 14L72.46 10.30L75.17 6.72L74.02 6.72L71.85 9.67L69.59 6.72L68.36 6.72L71.18 10.23L68.26 14L69.45 14L71.79 10.92L74.16 14Z"></path></g><!----><!----></svg>