<svg data-v-423bf9ae="" xmlns="http://www.w3.org/2000/svg" viewBox="0 0 586 90" class="iconLeft"><!----><!----><!----><g data-v-423bf9ae="" id="69969e38-d1a2-4e57-899e-44847648a562" fill="black" transform="matrix(4.966871763892457,0,0,4.966871763892457,105.13245065249555,-3.5759078895594527)"><path d="M10.14 15.82L5.56 11.24L0.98 15.82L0.98 4.07C0.98 3.92 1.11 3.79 1.25 3.79L2.87 3.79C3.02 3.79 3.14 3.92 3.14 4.07L3.14 10.61L5.56 8.19L7.98 10.61L7.98 4.07C7.98 3.92 8.11 3.79 8.26 3.79L9.87 3.79C10.02 3.79 10.14 3.92 10.14 4.07ZM20.16 15.54C20.16 15.69 20.03 15.82 19.89 15.82L12.24 15.82C12.08 15.82 11.96 15.69 11.96 15.54L11.96 4.06C11.96 3.91 12.08 3.78 12.24 3.78L19.61 3.78C19.77 3.78 19.89 3.91 19.89 4.06L19.89 5.70C19.89 5.85 19.77 5.96 19.61 5.96L14.14 5.96L14.14 8.71L19.33 8.71C19.49 8.71 19.61 8.82 19.61 8.97L19.61 10.61C19.61 10.77 19.49 10.89 19.33 10.89L14.14 10.89L14.14 13.62L19.89 13.62C20.03 13.62 20.16 13.75 20.16 13.90ZM29.32 9.80C30.07 9.13 30.45 8.23 30.45 7.34C30.45 6.38 30.02 5.46 29.25 4.80C28.45 4.13 27.36 3.78 26.08 3.78L21.98 3.78C21.83 3.78 21.70 3.91 21.70 4.07L21.70 5.21L24.04 8.71L21.70 8.71L21.70 15.53C21.70 15.68 21.83 15.82 21.98 15.82L26.08 15.82C28.95 15.82 30.45 14.03 30.45 12.26C30.45 11.33 30.04 10.44 29.32 9.80ZM24.84 5.96L26.08 5.96C27.58 5.96 28.27 6.68 28.27 7.34C28.27 7.91 27.75 8.51 26.64 8.67ZM23.88 13.62L23.88 10.89L26.08 10.89C27.58 10.89 28.27 11.61 28.27 12.26C28.27 12.92 27.58 13.62 26.08 13.62ZM40.22 15.29C40.59 15.12 40.94 14.92 41.27 14.69L41.27 14.67L41.29 14.67C41.29 14.66 41.29 14.66 41.30 14.66C41.41 14.56 41.43 14.38 41.31 14.27L40.26 13.02C40.18 12.91 40.01 12.88 39.90 12.95C39.90 12.96 39.89 12.96 39.89 12.96C38.29 14.04 36.09 13.76 34.82 12.26C33.45 10.64 33.64 8.22 35.25 6.85C36.53 5.77 38.32 5.66 39.68 6.45C39.79 6.51 39.90 6.50 39.98 6.43L41.30 5.32C41.41 5.22 41.43 5.04 41.31 4.91L41.29 4.89L41.24 4.86C39.05 3.29 35.98 3.35 33.84 5.17C31.29 7.32 30.98 11.14 33.14 13.68C34.92 15.78 37.83 16.35 40.22 15.29ZM50.93 15.37L48.71 11.42L48.40 10.89L48.33 10.77C50.36 10.32 51.41 8.82 51.41 7.35C51.41 6.38 50.96 5.46 50.19 4.82C49.41 4.14 48.30 3.79 47.03 3.79L42.94 3.79C42.78 3.79 42.66 3.92 42.66 4.06L42.66 5.17L42.80 5.42L42.80 5.43L44.66 8.71L42.66 8.71L42.66 15.54C42.66 15.69 42.78 15.82 42.94 15.82L44.58 15.82C44.72 15.82 44.84 15.69 44.84 15.54L44.84 10.89L45.89 10.89L46.19 11.42L48.58 15.65L48.61 15.69C48.65 15.76 48.73 15.82 48.83 15.82L50.71 15.82C50.86 15.82 50.97 15.69 50.97 15.53C50.97 15.48 50.97 15.44 50.95 15.40ZM46.87 8.19L45.63 5.98L47.03 5.98C48.54 5.98 49.21 6.69 49.21 7.35C49.21 7.91 48.71 8.53 47.57 8.68C47.45 8.69 47.31 8.71 47.17 8.71ZM60.87 15.54C60.87 15.69 60.75 15.82 60.61 15.82L52.95 15.82C52.79 15.82 52.67 15.69 52.67 15.54L52.67 4.06C52.67 3.91 52.79 3.78 52.95 3.78L60.33 3.78C60.48 3.78 60.61 3.91 60.61 4.06L60.61 5.70C60.61 5.85 60.48 5.96 60.33 5.96L54.85 5.96L54.85 8.71L60.05 8.71C60.20 8.71 60.33 8.82 60.33 8.97L60.33 10.61C60.33 10.77 60.20 10.89 60.05 10.89L54.85 10.89L54.85 13.62L60.61 13.62C60.75 13.62 60.87 13.75 60.87 13.90ZM70.55 11.16C70.55 11.00 70.42 10.89 70.27 10.89L69.34 10.89L67.63 4.05L67.62 3.98C67.58 3.88 67.48 3.81 67.37 3.81L65.53 3.81C65.42 3.81 65.32 3.88 65.28 3.98L65.27 4.06L62.43 15.41C62.43 15.43 62.43 15.44 62.41 15.44L62.41 15.50C62.41 15.67 62.54 15.79 62.68 15.79L64.37 15.79C64.48 15.79 64.60 15.71 64.62 15.60C64.62 15.58 64.64 15.57 64.64 15.57L65.25 13.06L67.65 13.06L68.26 15.55L68.28 15.60C68.32 15.71 68.42 15.79 68.53 15.79L70.22 15.79C70.38 15.79 70.49 15.67 70.49 15.50L70.49 15.47L70.48 15.40L69.89 13.06L70.27 13.06C70.42 13.06 70.55 12.95 70.55 12.80ZM65.80 10.89L66.46 8.30L67.10 10.89ZM78.96 5.68C78.96 5.84 78.81 5.96 78.62 5.96L75.95 5.96L75.95 15.47C75.95 15.65 75.82 15.81 75.68 15.81L74.03 15.81C73.89 15.81 73.77 15.65 73.77 15.47L73.77 5.96L71.04 5.96C70.88 5.96 70.76 5.84 70.76 5.68L70.76 4.05C70.76 3.89 70.88 3.78 71.04 3.78L78.62 3.78C78.81 3.78 78.96 3.89 78.96 4.05ZM84.67 5.95L84.67 13.61L86.51 13.61C86.70 13.61 86.86 13.73 86.86 13.89L86.86 15.53C86.86 15.68 86.70 15.81 86.51 15.81L80.57 15.81C80.42 15.81 80.29 15.68 80.29 15.53L80.29 13.89C80.29 13.73 80.42 13.61 80.57 13.61L82.47 13.61L82.47 5.95L80.57 5.95C80.42 5.95 80.29 5.84 80.29 5.68L80.29 4.05C80.29 3.89 80.42 3.77 80.57 3.77L86.51 3.77C86.70 3.77 86.86 3.89 86.86 4.05L86.86 5.68C86.86 5.84 86.70 5.95 86.51 5.95ZM93.80 9.79L96.71 15.37L96.73 15.40C96.74 15.43 96.75 15.47 96.75 15.51C96.75 15.68 96.63 15.81 96.47 15.81L94.63 15.81C94.53 15.81 94.44 15.75 94.40 15.67L94.39 15.64L92.57 12.15L90.76 15.64L90.75 15.67C90.71 15.75 90.61 15.81 90.51 15.81L88.68 15.81C88.52 15.81 88.40 15.68 88.40 15.51C88.40 15.47 88.41 15.43 88.42 15.40L88.44 15.37L91.34 9.79L88.45 4.24L88.41 4.14C88.40 4.12 88.40 4.09 88.40 4.06C88.40 4.02 88.41 3.98 88.42 3.93L88.44 3.91C88.48 3.82 88.56 3.77 88.68 3.77L90.51 3.77C90.62 3.77 90.71 3.84 90.76 3.92L92.57 7.41L94.39 3.92C94.43 3.84 94.53 3.77 94.63 3.77L96.47 3.77C96.57 3.77 96.66 3.82 96.71 3.91L96.73 3.93C96.74 3.98 96.75 4.02 96.75 4.06C96.75 4.09 96.74 4.12 96.74 4.14L96.68 4.24Z"></path></g><!----><g data-v-423bf9ae="" id="8da9098d-969b-48f6-b3de-c8e2f2ce750b" transform="matrix(1.6666666666666667,0,0,1.6666666666666667,-8.333333333333336,-8.333333333333336)" stroke="none" fill="black"><path d="M32 5C17.112 5 5 17.112 5 32s12.112 27 27 27 27-12.112 27-27S46.888 5 32 5zm19.77 42.275c-2.293-1.221-5.075-2.225-8.159-2.948.822-3.401 1.31-7.233 1.378-11.327h11.986a24.855 24.855 0 01-5.205 14.275zM7.025 33h4.144c.428 1.357 1.684 2.351 3.181 2.351 1.537 0 2.822-1.046 3.215-2.459A.995.995 0 0018 33h1.012c.068 4.034.542 7.816 1.343 11.181-3.115.679-5.946 1.638-8.326 2.838A24.866 24.866 0 017.025 33zm5.051-16.079c2.31 1.303 5.112 2.353 8.226 3.115-.77 3.31-1.224 7.016-1.29 10.964H18a.983.983 0 00-.435.109 3.344 3.344 0 00-3.215-2.459c-1.497 0-2.753.993-3.181 2.351H7.025a24.866 24.866 0 015.051-14.08zM32 25c.551 0 1 .449 1 1s-.449 1-1 1-1-.449-1-1 .449-1 1-1zm1 3.816c1.161-.415 2-1.514 2-2.816s-.839-2.401-2-2.816v-1.732a54.62 54.62 0 008.766-.749c.72 3.132 1.155 6.626 1.223 10.297H33v-2.184zm0-9.364V7.113c3.437.743 6.471 5.258 8.271 11.65a52.933 52.933 0 01-8.271.689zM31 7.113v12.303a51.362 51.362 0 01-8.203-.891C24.605 12.259 27.607 7.846 31 7.113zm0 14.319v1.752c-1.162.415-2 1.514-2 2.816s.838 2.401 2 2.815V31h-9.988c.069-3.76.523-7.335 1.275-10.526 2.741.541 5.68.869 8.713.958zM15.701 32a1.352 1.352 0 11-2.699-.001 1.352 1.352 0 012.699.001zm5.311 1H31v10.018c-2.985.034-5.9.304-8.65.781-.79-3.258-1.267-6.933-1.338-10.799zM31 45.017v11.87c-3.347-.723-6.313-5.023-8.129-11.152A52.493 52.493 0 0131 45.017zm2 11.87v-11.86l.193.004A2.997 2.997 0 0036 47a2.987 2.987 0 002.608-1.548c.846.111 1.676.241 2.489.392-1.818 6.072-4.77 10.324-8.097 11.043zM36 45a1 1 0 110-2 1 1 0 010 2zm2.947-1.519A2.998 2.998 0 0036 41c-1.313 0-2.42.854-2.825 2.03L33 43.027V33h9.988c-.071 3.91-.56 7.623-1.365 10.908a49.32 49.32 0 00-2.676-.427zM44.988 31c-.064-3.829-.493-7.432-1.222-10.666 3.201-.68 6.104-1.659 8.542-2.887a24.843 24.843 0 014.666 13.552H44.988zm6.059-15.167c-2.235 1.081-4.864 1.953-7.767 2.563-1.282-4.651-3.211-8.394-5.552-10.727a25.03 25.03 0 0113.319 8.164zM26.272 7.67c-2.29 2.282-4.186 5.909-5.468 10.419-2.8-.683-5.322-1.606-7.424-2.749a25.012 25.012 0 0112.892-7.67zM13.338 48.611c2.173-1.047 4.719-1.893 7.522-2.498 1.281 4.417 3.156 7.969 5.412 10.217a25.009 25.009 0 01-12.934-7.719zm24.391 7.719c2.23-2.223 4.088-5.723 5.367-10.071 2.77.646 5.274 1.522 7.361 2.585a25.015 25.015 0 01-12.728 7.486z"></path></g><!----></svg>